<?xml version="1.0" encoding="utf-8"?>
<!-- Generator: Adobe Illustrator 27.8.1, SVG Export Plug-In . SVG Version: 6.00 Build 0)  -->
<svg version="1.1" id="Layer_1" xmlns="http://www.w3.org/2000/svg" xmlns:xlink="http://www.w3.org/1999/xlink" x="0px" y="0px"
	 viewBox="0 0 61.26 73.21" style="enable-background:new 0 0 61.26 73.21;" xml:space="preserve">
<style type="text/css">
	.st0{fill:#B3B1B0;}
	.st1{fill:#9C9A99;}
	.st2{fill:#C98F1B;}
	.st3{fill:#060605;}
	.st4{fill:#E7A41F;}
	.st5{fill:#070706;}
	.st6{fill:#EAB03C;}
	.st7{fill:#272726;}
</style>
<g>
	<path class="st0" d="M61.26,43.79c0-2.26-1.72-4.1-3.84-4.1h-30.7c-2.12,0-3.84,1.84-3.84,4.1c0,2.26,1.72,4.11,3.84,4.11h30.7
		C59.54,47.89,61.26,46.06,61.26,43.79L61.26,43.79z"/>
	<path class="st1" d="M61.26,43.79H22.87l0,0c0,2.26,1.72,4.11,3.84,4.11h30.7C59.54,47.89,61.26,46.06,61.26,43.79L61.26,43.79
		L61.26,43.79z"/>
	<path class="st2" d="M8.73,43.79H8.59c0.05,2.25,0.96,4.5,2.74,6.31c3.99,4.08,8.05,8.08,12.08,12.12l0.62,0.6
		c1.43,0.92,1.44,3.81,0.56,5.1c-0.95,1.37-2.17,2.22-3.88,2.22c-0.06,0-0.13,0-0.19,0c-0.61-0.02-1.11-0.27-1.62-0.55
		c-0.11-0.06-0.21-0.12-0.32-0.19c2.9,2.57,6.74,3.81,10.94,3.81c4.53,0,8.63-1.56,11.6-4.56l7.9-8.04c1.56-1.57,1.5-4.16-0.12-5.8
		c-0.83-0.84-1.91-1.26-2.98-1.26c-1.01,0-2.01,0.38-2.76,1.14L35,62.65c-1.41,1.42-3.36,2.02-5.52,2.02s-4.11-0.59-5.52-2.02
		L10.86,49.34C9.47,47.94,8.76,45.91,8.73,43.79L8.73,43.79z"/>
	<path class="st3" d="M8.59,43.79H0c0.02,4.53,1.82,8.98,5.3,12.51c4.04,4.08,8.1,8.12,12.15,12.19c0.34,0.35,0.72,0.66,1.13,0.92
		c0.1,0.06,0.21,0.13,0.32,0.19c0.51,0.29,1.01,0.53,1.62,0.55c0.06,0,0.13,0,0.19,0c1.71,0,2.93-0.85,3.88-2.22
		c0.89-1.28,0.87-4.17-0.56-5.1l-0.62-0.6c-4.03-4.04-8.09-8.05-12.08-12.12C9.55,48.29,8.64,46.03,8.59,43.79L8.59,43.79z"/>
	<path class="st4" d="M4.77,55.48l13.15,13.3c2.97,2.99,7.07,4.43,11.6,4.43c4.53,0,8.63-1.56,11.6-4.56l7.9-8.04
		c1.56-1.57,1.5-4.16-0.12-5.8c-1.62-1.63-4.19-1.69-5.75-0.12L35,62.65c-1.41,1.42-3.36,2.02-5.52,2.02s-4.11-0.59-5.52-2.02
		L10.86,49.34c-1.41-1.43-2.13-3.51-2.13-5.68s0.71-4.14,2.13-5.56l13.07-13.36c1.42-1.43,3.4-1.97,5.56-1.97
		c2.16,0,4.11,0.59,5.52,2.02l8.16,7.95c1.56,1.57,4.13,1.52,5.75-0.12c1.62-1.64,1.67-4.23,0.12-5.8l-7.9-8.04
		c-1.98-1.97-4.49-3.4-7.3-4.06l-0.1-0.02l7.46-7.64c1.56-1.57,1.51-4.17-0.11-5.8c-1.62-1.63-4.2-1.69-5.76-0.12L4.77,31.96
		c-2.97,3-4.52,7.13-4.52,11.7S1.8,52.49,4.77,55.48L4.77,55.48z"/>
	<path class="st5" d="M18.9,69.59c-0.54-0.3-1.01-0.67-1.45-1.1c-4.05-4.07-8.11-8.11-12.15-12.19c-6.06-6.13-7.02-15.06-2.39-22.33
		c0.71-1.13,1.61-2.12,2.56-3.06c9.79-9.8,19.57-19.61,29.35-29.42c1.91-1.91,4.57-1.99,6.34-0.2c1.71,1.71,1.61,4.44-0.23,6.3
		c-2.35,2.37-4.7,4.73-7.05,7.09c-0.13,0.37-0.43,0.61-0.69,0.88c-2.63,2.68-5.34,5.28-7.93,7.99c-0.34,0.35-0.8,0.57-1.13,0.93
		c-4.34,4.34-8.73,8.63-13.01,13.03c-3.47,3.56-3.34,8.96,0.21,12.59c3.99,4.08,8.05,8.08,12.08,12.12l0.62,0.6
		c1.43,0.92,1.44,3.81,0.56,5.1c-0.98,1.42-2.25,2.29-4.07,2.22C19.91,70.12,19.41,69.88,18.9,69.59L18.9,69.59z"/>
	<path class="st6" d="M33.87,14.72c-0.13,0.35-0.42,0.58-0.67,0.83c-2.63,2.68-5.34,5.28-7.93,7.99c-0.34,0.35-0.8,0.57-1.13,0.93
		c-4.34,4.34-8.73,8.63-13.01,13.03c-1.77,1.82-2.6,4.12-2.52,6.41h0.14c0-0.09-0.01-0.18-0.01-0.27c0-2.17,0.71-4.14,2.13-5.56
		l13.07-13.36c1.42-1.43,3.4-1.97,5.56-1.97c2.16,0,4.11,0.59,5.52,2.02l8.16,7.95c0.76,0.77,1.76,1.14,2.77,1.14
		c1.07,0,2.15-0.42,2.98-1.26c1.62-1.64,1.67-4.23,0.12-5.8l-7.9-8.04C39.16,16.81,36.67,15.38,33.87,14.72L33.87,14.72z M38.08,0
		c-0.59,0-1.18,0.14-1.71,0.4C36.92,0.15,37.5,0.02,38.08,0L38.08,0z"/>
	<path class="st7" d="M38.17,0c-0.03,0-0.06,0-0.09,0c-0.58,0.01-1.16,0.15-1.71,0.4c-0.54,0.25-1.06,0.61-1.54,1.09
		c-9.79,9.8-19.57,19.61-29.35,29.42c-0.95,0.95-1.84,1.93-2.56,3.06C0.92,37.1-0.03,40.53,0,43.92h8.6
		c-0.08-2.3,0.76-4.59,2.52-6.41c4.28-4.4,8.67-8.69,13.01-13.03c0.34-0.36,0.8-0.58,1.13-0.93c2.59-2.71,5.3-5.31,7.93-7.99
		c0.25-0.26,0.54-0.49,0.67-0.83c0.01-0.02,0.01-0.03,0.02-0.04c2.35-2.36,4.7-4.73,7.05-7.09c1.84-1.86,1.94-4.58,0.23-6.3
		C40.31,0.43,39.25,0,38.17,0L38.17,0z"/>
</g>
</svg>
