<?xml version="1.0" encoding="utf-8"?>
<!-- Generator: Adobe Illustrator 28.1.0, SVG Export Plug-In . SVG Version: 6.00 Build 0)  -->
<svg version="1.1" id="Layer_1" xmlns="http://www.w3.org/2000/svg" xmlns:xlink="http://www.w3.org/1999/xlink" x="0px" y="0px"
	 viewBox="0 0 176 79" style="enable-background:new 0 0 176 79;" xml:space="preserve">
<style type="text/css">
	.st0{fill:#FFFFFF;stroke:#464648;stroke-width:0.5;stroke-miterlimit:10;}
	.st1{clip-path:url(#SVGID_00000083085882438914420640000001843303410577942712_);}
	.st2{fill:#EB6D4A;}
</style>
<path class="st0" d="M8.5,73.8c-2.5,0-4.4-0.7-5.9-2c-1.5-1.4-2.2-3.3-2.2-5.8v-4.7c0-2.5,0.7-4.5,2.2-5.8c1.5-1.4,3.4-2,5.9-2
	c2.5,0,4.4,0.7,5.9,2c1.5,1.3,2.2,3.3,2.2,5.8v4.7c0,2.5-0.7,4.5-2.2,5.8C12.9,73.1,11,73.8,8.5,73.8z M8.5,70.5
	c1.4,0,2.4-0.4,3.2-1.2c0.8-0.8,1.1-1.9,1.1-3.2v-4.9c0-1.3-0.4-2.4-1.1-3.2c-0.8-0.8-1.8-1.2-3.2-1.2c-1.4,0-2.4,0.4-3.2,1.2
	c-0.8,0.8-1.1,1.9-1.1,3.2v4.9c0,1.3,0.4,2.4,1.1,3.2C6.1,70.1,7.2,70.5,8.5,70.5z"/>
<path class="st0" d="M19.4,79V59.5h3.5v1.7h0.5c0.3-0.5,0.8-1,1.5-1.4c0.7-0.4,1.6-0.6,2.9-0.6c1.1,0,2.1,0.3,3.1,0.8
	c0.9,0.5,1.7,1.3,2.3,2.4c0.6,1.1,0.9,2.4,0.9,3.9v0.4c0,1.5-0.3,2.8-0.9,3.9c-0.6,1.1-1.3,1.9-2.3,2.4c-0.9,0.5-2,0.8-3.1,0.8
	c-0.8,0-1.5-0.1-2.1-0.3c-0.6-0.2-1-0.4-1.4-0.7c-0.3-0.3-0.6-0.6-0.8-1h-0.5V79H19.4z M26.6,70.7c1.1,0,2-0.3,2.7-1
	c0.7-0.7,1.1-1.7,1.1-3.1v-0.3c0-1.3-0.4-2.4-1.1-3.1c-0.7-0.7-1.6-1.1-2.7-1.1c-1.1,0-2,0.4-2.7,1.1c-0.7,0.7-1.1,1.7-1.1,3.1v0.3
	c0,1.3,0.4,2.4,1.1,3.1C24.6,70.4,25.5,70.7,26.6,70.7z"/>
<path class="st0" d="M42.9,73.8c-1.4,0-2.6-0.3-3.7-0.9c-1-0.6-1.9-1.4-2.5-2.5c-0.6-1.1-0.9-2.4-0.9-3.8v-0.3
	c0-1.5,0.3-2.7,0.9-3.8c0.6-1.1,1.4-1.9,2.4-2.5c1-0.6,2.3-0.9,3.6-0.9c1.4,0,2.5,0.3,3.5,0.9c1,0.6,1.8,1.4,2.3,2.5
	c0.6,1.1,0.8,2.3,0.8,3.7v1.2H39.5c0,1,0.4,1.7,1.1,2.3c0.7,0.6,1.5,0.9,2.5,0.9c1,0,1.7-0.2,2.2-0.6c0.5-0.4,0.8-0.9,1.1-1.4
	l2.9,1.5c-0.3,0.5-0.6,1-1.1,1.6c-0.5,0.6-1.1,1-2,1.5C45.2,73.6,44.2,73.8,42.9,73.8z M39.5,64.8H46c-0.1-0.8-0.4-1.4-1-1.9
	c-0.6-0.5-1.3-0.7-2.2-0.7c-0.9,0-1.7,0.2-2.3,0.7C40,63.4,39.7,64,39.5,64.8z"/>
<path class="st0" d="M52.2,73.4V59.5h3.5v1.8h0.5c0.2-0.5,0.6-0.9,1.3-1.4c0.6-0.4,1.5-0.7,2.8-0.7c1.1,0,2,0.3,2.8,0.8
	c0.8,0.5,1.5,1.2,1.9,2c0.4,0.9,0.7,1.9,0.7,3v8.3H62v-8c0-1-0.3-1.8-0.8-2.4c-0.5-0.5-1.2-0.8-2.2-0.8c-1.1,0-1.9,0.4-2.5,1.1
	c-0.6,0.7-0.9,1.7-0.9,3v7.1H52.2z"/>
<path class="st0" d="M70.3,73.4l-2.6-19.6h3.7l1.9,17h0.5l2.5-17h6.4l2.5,17h0.5l1.9-17h3.7l-2.6,19.6h-6.4L79.6,56h-0.5l-2.5,17.4
	H70.3z"/>
<path class="st0" d="M99.5,73.8c-1.4,0-2.6-0.3-3.7-0.9c-1-0.6-1.9-1.4-2.5-2.5c-0.6-1.1-0.9-2.4-0.9-3.8v-0.3
	c0-1.5,0.3-2.7,0.9-3.8c0.6-1.1,1.4-1.9,2.4-2.5c1-0.6,2.3-0.9,3.6-0.9c1.4,0,2.5,0.3,3.5,0.9c1,0.6,1.8,1.4,2.3,2.5
	c0.6,1.1,0.8,2.3,0.8,3.7v1.2H96.1c0,1,0.4,1.7,1.1,2.3c0.7,0.6,1.5,0.9,2.5,0.9c1,0,1.7-0.2,2.2-0.6c0.5-0.4,0.8-0.9,1.1-1.4
	l2.9,1.5c-0.3,0.5-0.6,1-1.1,1.6c-0.5,0.6-1.1,1-2,1.5C101.8,73.6,100.8,73.8,99.5,73.8z M96.1,64.8h6.5c-0.1-0.8-0.4-1.4-1-1.9
	c-0.6-0.5-1.3-0.7-2.2-0.7c-0.9,0-1.7,0.2-2.3,0.7C96.6,63.4,96.2,64,96.1,64.8z"/>
<path class="st0" d="M128.6,73.4c-0.9,0-1.7-0.3-2.2-0.8c-0.6-0.6-0.8-1.3-0.8-2.3v-7.8h-3.5v-2.9h3.5v-4.3h3.5v4.3h3.8v2.9h-3.8
	v7.2c0,0.6,0.3,0.8,0.8,0.8h2.7v2.9H128.6z"/>
<path class="st0" d="M135.5,73.4V53.8h3.5v7.4h0.5c0.1-0.3,0.4-0.6,0.7-0.9c0.3-0.3,0.7-0.5,1.3-0.7c0.5-0.2,1.2-0.3,2-0.3
	c1.1,0,2,0.3,2.8,0.8c0.8,0.5,1.5,1.2,1.9,2c0.4,0.9,0.7,1.9,0.7,3v8.3h-3.5v-8c0-1-0.3-1.8-0.8-2.4c-0.5-0.5-1.2-0.8-2.2-0.8
	c-1.1,0-1.9,0.4-2.5,1.1c-0.6,0.7-0.9,1.7-0.9,3v7.1H135.5z"/>
<path class="st0" d="M158.4,73.8c-1.4,0-2.6-0.3-3.7-0.9c-1-0.6-1.9-1.4-2.5-2.5c-0.6-1.1-0.9-2.4-0.9-3.8v-0.3
	c0-1.5,0.3-2.7,0.9-3.8c0.6-1.1,1.4-1.9,2.4-2.5c1-0.6,2.3-0.9,3.6-0.9c1.4,0,2.5,0.3,3.5,0.9c1,0.6,1.8,1.4,2.3,2.5
	c0.6,1.1,0.8,2.3,0.8,3.7v1.2H155c0,1,0.4,1.7,1.1,2.3s1.5,0.9,2.5,0.9c1,0,1.7-0.2,2.2-0.6c0.5-0.4,0.8-0.9,1.1-1.4l2.9,1.5
	c-0.3,0.5-0.6,1-1.1,1.6c-0.5,0.6-1.1,1-2,1.5C160.7,73.6,159.7,73.8,158.4,73.8z M155.1,64.8h6.5c-0.1-0.8-0.4-1.4-1-1.9
	c-0.6-0.5-1.3-0.7-2.2-0.7c-0.9,0-1.7,0.2-2.3,0.7C155.5,63.4,155.2,64,155.1,64.8z"/>
<path class="st0" d="M167.7,73.4V59.5h3.5v1.6h0.5c0.2-0.6,0.5-1,1-1.2c0.5-0.3,1-0.4,1.7-0.4h1.7v3.1h-1.7c-0.9,0-1.6,0.2-2.2,0.7
	c-0.6,0.5-0.9,1.2-0.9,2.2v7.9H167.7z"/>
<g>
	<defs>
		<rect id="SVGID_1_" x="12" y="0.9" width="58.5" height="55"/>
	</defs>
	<clipPath id="SVGID_00000107549067900505491200000016417863187741610888_">
		<use xlink:href="#SVGID_1_"  style="overflow:visible;"/>
	</clipPath>
	<g style="clip-path:url(#SVGID_00000107549067900505491200000016417863187741610888_);">
		<path class="st2" d="M64.7,31.1c-0.7,0-1.3,0-2,0c-2.8,0-2.8,0-2.7-2.8c0.1-3.2-0.5-6.4-1.7-9.4c-1.2-3-3.1-5.7-5.5-7.9v0
			l-0.5-0.4c-2.5-2.2-5.4-3.8-8.5-4.7s-6.5-1.1-9.7-0.6S27.7,6.9,25,8.7c-2.7,1.8-5,4.2-6.7,7.1l0,0.1c-0.1,0.2-0.2,0.4-0.3,0.6
			c-2.2,3.9-3.2,8.3-2.8,12.7c0,0.7,0.6,1.8-0.9,1.9c-1.3,0.1-2.3,0.7-2,2.2c0.2,1.5,1.4,1.6,2.6,1.6c2,0,3.9,0,5.9,0
			c1.3,0,2.2,0.5,2.2,1.8c0,1.2-0.7,1.9-1.9,1.9c-1.5,0-2.4,0.7-2.3,2.2s1.3,1.7,2.6,1.6c3.5,0,7,0,10.5,0c1.3,0,2.2,0.5,2.2,2.1
			c-0.1,1.4-1,1.8-2.2,1.8c-2.2,0-4.3,0-6.5,0c-1.4,0-2.7,0.1-2.7,1.9s1.4,1.9,2.7,1.9c7.3,0,14.6,0,21.8,0c3.2,0,6.3,0,9.5,0
			c1.3,0,2.4-0.2,2.4-1.8c0-1.7-1.1-2-2.4-1.9c-0.5,0-1.1,0-1.6,0H45c-1.3,0-2.1-0.5-2.2-1.9c0-1.3,0.8-1.9,2.1-2c0.4,0,0.8,0,1.2,0
			c1.2,0,2.4-0.1,2.5-1.7c0.1-1.7-1-2-2.4-2c-1.2-0.1-2-0.8-2-1.9c0-1.2,0.8-1.9,2.1-1.9c0.8,0,1.6,0,2.4,0c5.3,0,10.5,0,15.8,0
			c1.3,0,2.3-0.4,2.3-1.9S66,31.1,64.7,31.1z"/>
		<circle class="st2" cx="64" cy="40.6" r="1.9"/>
		<circle class="st2" cx="68.6" cy="40.6" r="1.9"/>
		<rect x="63.8" y="38.7" class="st2" width="5" height="3.7"/>
		<circle class="st2" cx="53" cy="40.6" r="1.9"/>
		<circle class="st2" cx="57.7" cy="40.6" r="1.9"/>
		<rect x="52.8" y="38.7" class="st2" width="5" height="3.7"/>
	</g>
</g>
<path class="st0" d="M113.6,73.7c-1,0-1.9-0.2-2.7-0.5c-0.8-0.4-1.4-0.9-1.9-1.5c-0.4-0.7-0.7-1.5-0.7-2.4c0-1,0.2-1.7,0.7-2.4
	c0.5-0.7,1.1-1.1,1.9-1.5c0.8-0.3,1.7-0.5,2.8-0.5h3.8v-0.8c0-0.7-0.2-1.2-0.6-1.6c-0.4-0.4-1.1-0.6-2-0.6c-0.9,0-1.5,0.2-2,0.6
	c-0.4,0.4-0.7,0.9-0.8,1.5L109,63c0.2-0.7,0.6-1.4,1.1-1.9c0.5-0.6,1.2-1.1,2-1.4c0.8-0.4,1.9-0.6,3-0.6c1.8,0,3.3,0.5,4.3,1.4
	c1.1,0.9,1.6,2.2,1.6,4v5.2c0,0.6,0,0.6,0,1.1v1.1v1.6h-0.4c-0.7,0-1.8,0-2.4,0c0-0.5,0-1.3,0-1.8v0h-0.5c-0.1,0.2-0.2,0.5-0.5,0.9
	c-0.3,0.4-0.7,0.7-1.2,1C115.4,73.6,114.6,73.7,113.6,73.7z M114.2,70.9c1,0,1.8-0.3,2.4-0.8c0.6-0.6,1-1.3,1-2.2v-0.3H114
	c-0.7,0-1.2,0.1-1.5,0.4c-0.4,0.3-0.6,0.7-0.6,1.2c0,0.5,0.2,0.9,0.6,1.2S113.5,70.9,114.2,70.9z"/>
</svg>
