<?xml version="1.0" encoding="utf-8"?>
<!-- Generator: Adobe Illustrator 28.1.0, SVG Export Plug-In . SVG Version: 6.00 Build 0)  -->
<svg version="1.1" id="Layer_1" xmlns="http://www.w3.org/2000/svg" xmlns:xlink="http://www.w3.org/1999/xlink" x="0px" y="0px"
	 viewBox="0 0 452.2 374.3" style="enable-background:new 0 0 452.2 374.3;" xml:space="preserve">
<style type="text/css">
	.st0{fill:url(#SVGID_1_);}
	.st1{fill:none;stroke:#FFBC00;stroke-width:22;stroke-linecap:round;stroke-miterlimit:10;}
	.st2{fill:url(#SVGID_00000036214378765704858010000012057525701933450143_);}
	.st3{fill:#FFFFFF;}
</style>
<radialGradient id="SVGID_1_" cx="159.2798" cy="160.4128" r="71.142" fx="161.3633" fy="166.4855" gradientUnits="userSpaceOnUse">
	<stop  offset="0" style="stop-color:#FFFFFF"/>
	<stop  offset="1" style="stop-color:#FDC010"/>
</radialGradient>
<circle class="st0" cx="159.3" cy="160.4" r="71.1"/>
<line class="st1" x1="162.9" y1="18.8" x2="162.9" y2="56.7"/>
<line class="st1" x1="61.7" y1="57.7" x2="88.5" y2="84.6"/>
<line class="st1" x1="17.6" y1="156.8" x2="55.6" y2="156.8"/>
<line class="st1" x1="56.6" y1="258" x2="83.4" y2="231.2"/>
<line class="st1" x1="155.7" y1="302" x2="155.7" y2="264.1"/>
<line class="st1" x1="256.9" y1="263.1" x2="230.1" y2="236.3"/>
<line class="st1" x1="300.9" y1="164" x2="263" y2="164"/>
<line class="st1" x1="262" y1="62.8" x2="235.1" y2="89.6"/>
<g>
	
		<radialGradient id="SVGID_00000041290269480289400730000010769793572667806103_" cx="265.7708" cy="233.1246" r="147.06" fx="225.0694" fy="180.0952" gradientUnits="userSpaceOnUse">
		<stop  offset="0" style="stop-color:#FFFFFF"/>
		<stop  offset="1" style="stop-color:#BCBEC0"/>
	</radialGradient>
	<path style="fill:url(#SVGID_00000041290269480289400730000010769793572667806103_);" d="M167.1,355.5c-38.3,0-69.5-31.2-69.5-69.5
		c0-34.1,24.8-62.6,57.3-68.4c-0.5-3.8-0.7-7.7-0.7-11.5c0-52.6,42.8-95.4,95.4-95.4c43.4,0,80.7,28.9,92,69.9
		c1.8-0.1,3.7-0.2,5.5-0.2c47.8,0,86.7,38.9,86.7,86.7c0,47.8-38.9,86.7-86.7,86.7L167.1,355.5L167.1,355.5z"/>
	<path class="st3" d="M249.7,120.7c42.2,0,77.3,30.6,84.2,70.9c4.3-0.8,8.8-1.2,13.3-1.2c42.4,0,76.7,34.4,76.7,76.7
		c0,42.4-34.4,76.7-76.7,76.7l-180,1.6c-32.9,0-59.5-26.6-59.5-59.5c0-32.7,26.4-59.3,59.1-59.5c-1.6-6.5-2.5-13.4-2.5-20.4
		C164.2,159,202.5,120.7,249.7,120.7 M249.7,100.7c-58.1,0-105.4,47.3-105.4,105.4c0,1.2,0,2.5,0.1,3.7
		c-12.6,3.7-24.1,10.6-33.6,20.2c-14.9,15-23.1,34.9-23.1,56c0,43.8,35.7,79.5,79.5,79.5h0.1l0.1,0l179.9-1.6
		c53.3-0.1,96.6-43.4,96.6-96.7c0-52.8-42.5-95.8-95-96.7c-6.2-17.2-16.8-32.6-30.9-44.6C299,109.6,274.7,100.7,249.7,100.7
		L249.7,100.7z"/>
</g>
</svg>
